<svg width="900" height="420" viewBox="0 0 900 420" fill="none" xmlns="http://www.w3.org/2000/svg">
<path d="M135.407 310V109.72H215.597C230.331 109.72 242.621 111.904 252.465 116.272C262.31 120.64 269.709 126.704 274.664 134.462C279.619 142.155 282.096 151.021 282.096 161.062C282.096 168.885 280.532 175.763 277.402 181.696C274.273 187.563 269.97 192.388 264.494 196.169C259.082 199.885 252.889 202.526 245.913 204.09V206.046C253.541 206.372 260.68 208.524 267.33 212.501C274.045 216.477 279.489 222.052 283.661 229.223C287.834 236.329 289.92 244.805 289.92 254.649C289.92 265.276 287.279 274.762 281.999 283.107C276.783 291.387 269.057 297.939 258.822 302.763C248.586 307.588 235.971 310 220.976 310H135.407ZM177.751 275.381H212.272C224.073 275.381 232.678 273.132 238.09 268.634C243.501 264.07 246.206 258.007 246.206 250.444C246.206 244.903 244.87 240.013 242.197 235.775C239.524 231.538 235.71 228.213 230.755 225.8C225.865 223.388 220.031 222.182 213.25 222.182H177.751V275.381ZM177.751 193.529H209.143C214.945 193.529 220.096 192.518 224.594 190.497C229.158 188.411 232.744 185.477 235.351 181.696C238.024 177.914 239.361 173.383 239.361 168.103C239.361 160.866 236.786 155.031 231.635 150.598C226.55 146.164 219.313 143.948 209.925 143.948H177.751V193.529ZM358.35 109.72V310H316.691V109.72H358.35ZM391.722 310V159.79H433.382V310H391.722ZM412.65 140.427C406.456 140.427 401.143 138.374 396.71 134.266C392.341 130.094 390.157 125.106 390.157 119.304C390.157 113.567 392.341 108.645 396.71 104.537C401.143 100.365 406.456 98.2785 412.65 98.2785C418.843 98.2785 424.124 100.365 428.492 104.537C432.926 108.645 435.142 113.567 435.142 119.304C435.142 125.106 432.926 130.094 428.492 134.266C424.124 138.374 418.843 140.427 412.65 140.427ZM508.413 223.16V310H466.754V159.79H506.458V186.292H508.218C511.543 177.556 517.117 170.645 524.94 165.56C532.764 160.41 542.25 157.834 553.398 157.834C563.829 157.834 572.924 160.116 580.682 164.68C588.441 169.244 594.471 175.763 598.774 184.238C603.077 192.649 605.228 202.689 605.228 214.359V310H563.569V221.791C563.634 212.598 561.287 205.427 556.528 200.276C551.768 195.061 545.216 192.453 536.871 192.453C531.264 192.453 526.31 193.659 522.007 196.071C517.769 198.484 514.444 202.004 512.032 206.633C509.685 211.197 508.479 216.706 508.413 223.16ZM675.81 266.776L675.908 216.803H681.971L730.085 159.79H777.906L713.265 235.286H703.388L675.81 266.776ZM638.062 310V109.72H679.722V310H638.062ZM731.943 310L687.741 244.577L715.514 215.141L780.742 310H731.943Z" fill="url(#paint0_linear_1_132)"/>
<defs>
<linearGradient id="paint0_linear_1_132" x1="188.754" y1="111.5" x2="260.68" y2="428.344" gradientUnits="userSpaceOnUse">
<stop stop-color="white"/>
<stop offset="1" stop-color="#999999"/>
</linearGradient>
</defs>
</svg>
